<?xml version="1.0" standalone="no"?>
<!DOCTYPE svg PUBLIC "-//W3C//DTD SVG 20010904//EN"
 "http://www.w3.org/TR/2001/REC-SVG-20010904/DTD/svg10.dtd">
<svg version="1.0" xmlns="http://www.w3.org/2000/svg"
 width="198.000000pt" height="198.000000pt" viewBox="0 0 198.000000 198.000000"
 preserveAspectRatio="xMidYMid meet">

<g transform="translate(0.000000,198.000000) scale(0.100000,-0.100000)"
fill="#000000" stroke="none">
<path d="M0 990 l0 -990 990 0 990 0 0 990 0 990 -990 0 -990 0 0 -990z m838
479 c-13 -7 -18 -23 -18 -59 0 -27 -5 -52 -11 -56 -8 -4 -8 -9 0 -17 6 -6 11
-31 11 -55 0 -31 6 -49 18 -59 16 -13 16 -14 -3 -11 -16 3 -21 13 -25 55 -3
29 -11 58 -17 64 -9 9 -9 17 -1 33 7 12 11 33 9 48 -4 43 8 68 32 68 20 -1 20
-2 5 -11z m336 -5 c3 -9 6 -32 6 -52 0 -20 4 -44 10 -52 6 -9 5 -19 -3 -29 -6
-7 -14 -37 -17 -65 -4 -41 -9 -51 -25 -54 -19 -3 -19 -2 -2 11 12 10 17 28 17
60 0 25 5 49 11 53 8 4 8 9 0 17 -6 6 -11 32 -11 59 0 34 -5 50 -17 57 -16 9
-16 10 3 11 12 0 25 -7 28 -16z m-227 -21 c3 -7 -5 -17 -17 -23 -16 -9 -22 -8
-27 6 -3 9 0 20 8 25 17 10 31 7 36 -8z m67 -88 c39 -54 46 -68 36 -80 -7 -8
-16 -15 -20 -15 -5 0 -29 29 -55 65 -38 54 -44 69 -35 80 7 8 16 15 19 15 4 0
29 -29 55 -65z m66 -115 c0 -18 -3 -19 -20 -10 -22 12 -18 30 6 30 8 0 14 -9
14 -20z m-612 -239 c20 -2 14 -26 -37 -136 l-50 -105 45 0 c31 0 46 -5 51 -15
8 -22 -2 -29 -50 -32 -63 -3 -97 6 -97 27 0 9 20 61 45 114 25 54 45 99 45
102 0 2 -20 4 -45 4 -38 0 -45 3 -45 19 0 11 6 21 13 24 10 4 85 3 125 -2z
m120 -136 c1 -76 -1 -142 -6 -147 -5 -5 -16 -6 -25 -2 -15 5 -17 25 -17 144 0
137 4 154 35 146 6 -2 11 -59 13 -141z m204 127 c5 -5 12 -23 17 -40 9 -30 8
-32 -15 -32 -14 0 -24 6 -24 14 0 7 -7 19 -15 26 -12 10 -18 10 -30 0 -25 -20
-18 -36 40 -93 59 -57 63 -72 40 -116 -17 -34 -57 -47 -97 -30 -15 6 -28 12
-28 13 0 1 -4 16 -9 34 -9 30 -8 32 15 32 14 0 24 -6 24 -14 0 -7 7 -19 15
-26 12 -10 18 -10 30 0 26 21 17 43 -37 91 -45 40 -52 50 -52 84 0 50 34 79
83 71 19 -3 38 -9 43 -14z m144 4 c0 0 8 -20 19 -44 l18 -43 23 50 c17 35 28
49 41 47 16 -3 18 -16 18 -147 0 -121 -2 -144 -15 -144 -12 0 -16 19 -20 95
l-5 95 -17 -38 c-20 -43 -29 -42 -49 5 -14 32 -14 30 -19 -62 -5 -87 -7 -95
-25 -95 -19 0 -20 8 -23 134 -1 74 0 141 3 149 3 9 12 11 27 6 13 -3 23 -7 24
-8z m315 -10 c5 -12 20 -75 34 -140 18 -88 22 -122 13 -127 -18 -11 -37 0 -40
24 -2 17 -11 23 -35 25 -23 2 -33 -1 -33 -10 0 -8 -6 -23 -14 -34 -12 -15 -17
-16 -27 -7 -10 10 -7 39 16 145 16 73 32 136 37 139 18 12 40 5 49 -15z m177
-132 c-3 -131 -4 -139 -23 -139 -19 0 -20 8 -23 142 -2 129 -1 142 15 145 10
3 22 2 26 -2 4 -4 6 -69 5 -146z m120 28 l3 -122 50 0 c47 0 50 -2 47 -22 -3
-21 -9 -23 -63 -24 -33 -1 -66 1 -72 4 -10 3 -13 39 -13 132 0 140 4 163 29
158 14 -3 16 -22 19 -126z m-909 -309 c0 -11 -3 -13 -6 -5 -10 25 -23 11 -23
-24 0 -29 3 -35 16 -30 8 3 12 2 9 -4 -3 -6 -13 -10 -21 -10 -10 0 -14 12 -14
45 0 38 3 45 20 45 13 0 20 -6 19 -17z m79 10 c-20 -5 -24 -33 -5 -34 10 0 10
-2 0 -6 -21 -8 -15 -31 10 -36 19 -4 18 -4 -5 -6 -26 -1 -28 2 -28 37 0 43 6
53 29 51 13 -1 13 -2 -1 -6z m190 0 c-20 -5 -24 -33 -5 -34 10 0 10 -2 0 -6
-19 -7 -16 -31 5 -36 13 -4 11 -5 -5 -6 -21 -1 -23 4 -23 44 0 40 2 45 23 44
16 -1 18 -2 5 -6z m90 -76 c12 -3 11 -5 -5 -6 -21 -1 -23 3 -21 47 l1 47 4
-42 c3 -29 9 -43 21 -46z m97 38 c0 -30 -4 -41 -17 -43 -10 -2 -18 1 -18 7 0
6 7 8 15 5 12 -5 15 2 15 29 0 25 -5 37 -17 41 -14 4 -14 4 2 3 16 -2 20 -10
20 -42z m95 35 c0 -5 -7 -7 -15 -4 -10 4 -15 0 -15 -11 0 -11 5 -15 15 -11 8
3 15 1 15 -4 0 -6 -6 -10 -14 -10 -8 0 -17 -10 -19 -22 -2 -13 -5 -2 -6 25 -1
41 2 47 19 47 11 0 20 -4 20 -10z m78 3 c-10 -2 -18 -9 -18 -15 0 -6 -3 -9 -6
-5 -10 10 6 27 24 26 15 -1 15 -2 0 -6z m108 -6 c2 -7 0 -24 -5 -38 -5 -13
-10 -18 -10 -10 -1 7 -7 11 -16 7 -8 -3 -15 -1 -15 4 0 6 9 10 20 10 25 0 27
27 3 33 -17 4 -17 5 0 6 10 0 20 -5 23 -12z m-567 -33 c1 11 4 17 7 13 4 -3 3
-19 -1 -34 -7 -26 -8 -26 -15 -8 -5 11 -8 29 -8 40 0 16 2 15 8 -5 6 -19 8
-21 9 -6z m458 0 c-3 -3 -12 -4 -19 -1 -8 3 -5 6 6 6 11 1 17 -2 13 -5z m9
-42 c-10 -2 -22 0 -28 6 -6 6 0 7 19 4 21 -5 23 -7 9 -10z"/>
<path d="M1212 876 c-16 -78 -16 -76 13 -76 21 0 24 4 20 23 -3 12 -9 42 -13
67 l-8 45 -12 -59z"/>
</g>
</svg>
